<svg width="305" height="377" viewBox="0 0 305 377" fill="none" xmlns="http://www.w3.org/2000/svg">
<path d="M0 22.4806C0 14.6144 0 10.6813 1.53277 7.68108C2.88096 5.04214 5.03175 2.89906 7.67552 1.56035C10.6812 0.0383733 14.6143 0.0525032 22.4805 0.0807631L282.284 1.01413C290.091 1.04218 293.995 1.0562 296.977 2.58386C299.6 3.92772 301.733 6.06525 303.07 8.69189C304.59 11.6778 304.595 15.5815 304.603 23.3889L304.962 344.367C304.975 356.082 304.982 361.939 302.67 366.327C300.637 370.183 297.4 373.27 293.45 375.118C288.958 377.219 283.107 376.934 271.406 376.365L30.444 364.634C19.7383 364.113 14.3855 363.852 10.3188 361.603C6.73927 359.622 3.85303 356.592 2.04927 352.921C0 348.749 0 343.39 0 332.672V22.4806Z" fill="#009639"/>
</svg>
